<?xml version="1.0" encoding="utf-8"?>
<svg viewBox="0 0 500 500" xmlns="http://www.w3.org/2000/svg">
  <path d="M 0.251 498.507 C -1.8 476.355 -7.463 454.69 -16.515 434.379 C -19.039 428.727 -21.817 423.199 -24.846 417.795 C -24.999 417.512 -25.034 417.182 -24.949 416.871 C -24.862 416.563 -24.659 416.301 -24.382 416.138 C -24.107 415.976 -23.777 415.927 -23.468 416.005 C -23.154 416.08 -22.886 416.275 -22.715 416.546 C -11.693 436.227 -3.972 457.59 0.14 479.784 C 1.283 485.981 2.141 492.222 2.718 498.507 C 2.864 500.092 0.396 500.083 0.251 498.507 Z" fill="#F2F2F2" style="" transform="matrix(1, 0, 0, 1, -1.1368683772161603e-13, 0)"/>
  <path d="M -1.347 498.924 C -2.678 484.552 -6.354 470.497 -12.225 457.32 C -13.861 453.653 -15.664 450.068 -17.629 446.562 C -17.728 446.378 -17.752 446.163 -17.696 445.962 C -17.64 445.763 -17.508 445.592 -17.329 445.487 C -17.149 445.381 -16.935 445.35 -16.735 445.4 C -16.532 445.449 -16.357 445.575 -16.247 445.751 C -9.097 458.52 -4.088 472.379 -1.421 486.777 C -0.678 490.798 -0.122 494.846 0.254 498.924 C 0.347 499.952 -1.254 499.946 -1.347 498.924 Z" fill="#F2F2F2" style="" transform="matrix(1, 0, 0, 1, -1.1368683772161603e-13, 0)"/>
  <path d="M 0.672 497.964 C 8.437 485.812 14.157 472.464 17.608 458.451 C 18.565 454.549 19.346 450.61 19.945 446.633 C 19.979 446.428 20.092 446.245 20.26 446.121 C 20.427 445.998 20.635 445.945 20.84 445.971 C 21.047 445.999 21.234 446.106 21.363 446.27 C 21.492 446.432 21.552 446.641 21.533 446.847 C 19.339 461.325 14.79 475.344 8.064 488.341 C 6.183 491.969 4.141 495.505 1.935 498.95 C 1.378 499.821 0.119 498.827 0.672 497.964 Z" fill="#F2F2F2" style="" transform="matrix(1, 0, 0, 1, -1.1368683772161603e-13, 0)"/>
  <path d="M 21.545 448.422 C 27.143 448.422 31.683 443.87 31.683 438.254 C 31.683 432.638 27.143 428.086 21.545 428.086 C 15.944 428.086 11.405 432.638 11.405 438.254 C 11.405 443.87 15.944 448.422 21.545 448.422 Z" fill="#F2F2F2" style="" transform="matrix(1, 0, 0, 1, -1.1368683772161603e-13, 0)"/>
  <path d="M 484.139 268.412 L 348.116 267.878 L 361.343 223.74 C 362.4 220.272 364.534 217.234 367.434 215.072 C 370.335 212.908 373.849 211.733 377.464 211.718 L 377.528 211.718 L 455.166 212.022 C 458.793 212.054 462.313 213.251 465.211 215.437 C 468.106 217.625 470.228 220.687 471.258 224.173 L 484.139 268.412 Z" fill="#3F3D56" style="" transform="matrix(1, 0, 0, 1, -1.1368683772161603e-13, 0)"/>
  <path d="M 603.942 499.897 L 228.533 499.897 C 223.934 499.89 219.527 498.057 216.276 494.796 C 213.024 491.536 211.195 487.114 211.191 482.503 L 211.191 284.006 C 211.195 279.393 213.024 274.972 216.276 271.71 C 219.527 268.449 223.934 266.615 228.533 266.612 L 603.942 266.612 C 608.54 266.615 612.949 268.449 616.2 271.71 C 619.45 274.972 621.28 279.393 621.285 284.006 L 621.285 482.503 C 621.28 487.114 619.45 491.536 616.2 494.796 C 612.949 498.057 608.54 499.89 603.942 499.897 Z M 228.533 268.656 C 224.475 268.663 220.587 270.28 217.718 273.158 C 214.849 276.035 213.235 279.935 213.23 284.006 L 213.23 482.503 C 213.235 486.571 214.849 490.473 217.718 493.35 C 220.587 496.228 224.475 497.846 228.533 497.85 L 603.942 497.85 C 607.998 497.846 611.89 496.228 614.758 493.35 C 617.627 490.473 619.239 486.571 619.245 482.503 L 619.245 284.006 C 619.239 279.935 617.627 276.035 614.758 273.158 C 611.89 270.28 607.998 268.663 603.942 268.656 L 228.533 268.656 Z" fill="#3F3D56" style="" transform="matrix(1, 0, 0, 1, -1.1368683772161603e-13, 0)"/>
  <path d="M 432.56 251.775 L 399.916 251.775 C 397.616 251.775 395.41 250.858 393.784 249.226 C 392.158 247.595 391.243 245.384 391.243 243.077 C 391.243 240.771 392.158 238.558 393.784 236.928 C 395.41 235.297 397.616 234.381 399.916 234.381 L 432.56 234.381 C 434.86 234.381 437.065 235.297 438.692 236.928 C 440.318 238.558 441.23 240.771 441.23 243.077 C 441.23 245.384 440.318 247.595 438.692 249.226 C 437.065 250.858 434.86 251.775 432.56 251.775 Z" fill="white" style="" transform="matrix(1, 0, 0, 1, -1.1368683772161603e-13, 0)"/>
  <path d="M 416.237 461.016 C 400.905 461.016 385.913 456.455 373.164 447.912 C 360.413 439.365 350.477 427.221 344.609 413.013 C 338.741 398.803 337.204 383.169 340.197 368.082 C 343.189 352.998 350.572 339.143 361.415 328.267 C 372.257 317.394 386.074 309.986 401.111 306.986 C 416.152 303.986 431.74 305.526 445.908 311.41 C 460.074 317.296 472.184 327.263 480.701 340.052 C 489.221 352.839 493.768 367.873 493.768 383.253 C 493.745 403.871 485.568 423.635 471.033 438.213 C 456.5 452.793 436.792 460.992 416.237 461.016 Z M 416.237 307.539 C 401.308 307.539 386.712 311.979 374.298 320.299 C 361.884 328.618 352.208 340.443 346.494 354.278 C 340.78 368.114 339.286 383.337 342.198 398.025 C 345.111 412.712 352.3 426.203 362.858 436.793 C 373.415 447.381 386.866 454.593 401.51 457.515 C 416.153 460.436 431.332 458.937 445.127 453.205 C 458.921 447.476 470.711 437.771 479.004 425.319 C 487.299 412.868 491.728 398.229 491.728 383.253 C 491.706 363.18 483.744 343.933 469.592 329.741 C 455.44 315.545 436.253 307.56 416.237 307.539 Z" fill="#3F3D56" style="" transform="matrix(1, 0, 0, 1, -1.1368683772161603e-13, 0)"/>
  <path d="M 416.237 434.413 C 406.149 434.413 396.288 431.413 387.901 425.79 C 379.511 420.17 372.974 412.179 369.112 402.831 C 365.253 393.483 364.243 383.196 366.211 373.274 C 368.179 363.35 373.038 354.232 380.169 347.078 C 387.304 339.925 396.392 335.05 406.286 333.078 C 416.181 331.104 426.436 332.115 435.756 335.987 C 445.077 339.861 453.043 346.419 458.648 354.831 C 464.254 363.243 467.245 373.135 467.245 383.253 C 467.229 396.818 461.85 409.822 452.288 419.412 C 442.724 429.004 429.761 434.397 416.237 434.413 Z M 416.237 334.14 C 406.552 334.14 397.086 337.021 389.033 342.418 C 380.98 347.814 374.705 355.485 370.999 364.459 C 367.292 373.434 366.322 383.307 368.212 392.835 C 370.101 402.363 374.765 411.113 381.612 417.982 C 388.462 424.851 397.186 429.527 406.684 431.423 C 416.183 433.318 426.029 432.345 434.977 428.628 C 443.924 424.911 451.571 418.615 456.951 410.539 C 462.332 402.461 465.204 392.967 465.204 383.253 C 465.188 370.232 460.025 357.749 450.846 348.542 C 441.666 339.335 429.22 334.155 416.237 334.14 Z" fill="#3F3D56" style="" transform="matrix(1, 0, 0, 1, -1.1368683772161603e-13, 0)"/>
  <path d="M 416.237 422.134 C 437.647 422.134 455.003 404.727 455.003 383.253 C 455.003 361.782 437.647 344.373 416.237 344.373 C 394.828 344.373 377.472 361.782 377.472 383.253 C 377.472 404.727 394.828 422.134 416.237 422.134 Z" fill="#CCCCCC" style="" transform="matrix(1, 0, 0, 1, -1.1368683772161603e-13, 0)"/>
  <path d="M 392.774 383.253 C 392.774 377.091 394.994 371.135 399.023 366.481 C 403.054 361.829 408.624 358.792 414.708 357.93 C 411.09 357.414 407.407 357.684 403.902 358.718 C 400.4 359.756 397.159 361.533 394.4 363.934 C 391.642 366.337 389.43 369.303 387.915 372.637 C 386.397 375.969 385.614 379.589 385.614 383.253 C 385.614 386.917 386.397 390.538 387.915 393.871 C 389.43 397.205 391.642 400.172 394.4 402.572 C 397.159 404.973 400.4 406.753 403.902 407.788 C 407.407 408.825 411.09 409.095 414.708 408.579 C 408.624 407.715 403.054 404.678 399.023 400.025 C 394.994 395.372 392.774 389.417 392.774 383.253 Z" fill="white" style="" transform="matrix(1, 0, 0, 1, -1.1368683772161603e-13, 0)"/>
  <path d="M 236.695 297.306 C 234.676 297.306 232.703 296.706 231.027 295.581 C 229.349 294.457 228.04 292.86 227.269 290.99 C 226.496 289.12 226.295 287.064 226.69 285.077 C 227.083 283.093 228.053 281.27 229.48 279.841 C 230.908 278.408 232.726 277.434 234.703 277.039 C 236.684 276.645 238.732 276.847 240.598 277.62 C 242.463 278.396 244.055 279.708 245.175 281.39 C 246.297 283.072 246.896 285.05 246.896 287.074 C 246.892 289.786 245.818 292.388 243.903 294.306 C 241.993 296.225 239.399 297.302 236.695 297.306 Z M 236.695 278.889 C 235.079 278.889 233.502 279.368 232.161 280.268 C 230.818 281.167 229.771 282.447 229.154 283.943 C 228.537 285.438 228.375 287.084 228.689 288.671 C 229.004 290.259 229.782 291.716 230.922 292.863 C 232.065 294.007 233.518 294.787 235.103 295.103 C 236.684 295.418 238.326 295.257 239.817 294.637 C 241.309 294.017 242.583 292.967 243.48 291.621 C 244.377 290.276 244.855 288.692 244.855 287.074 C 244.853 284.904 243.992 282.825 242.463 281.289 C 240.932 279.754 238.858 278.891 236.695 278.889 Z" fill="#3F3D56" style="" transform="matrix(1, 0, 0, 1, -1.1368683772161603e-13, 0)"/>
  <path d="M 236.695 292.19 C 239.512 292.19 241.793 289.9 241.793 287.074 C 241.793 284.249 239.512 281.959 236.695 281.959 C 233.876 281.959 231.593 284.249 231.593 287.074 C 231.593 289.9 233.876 292.19 236.695 292.19 Z" fill="#5EA8FF" style="" transform="matrix(1, 0, 0, 1, -1.1368683772161603e-13, 0)"/>
  <path d="M 263.217 292.19 C 266.034 292.19 268.318 289.9 268.318 287.074 C 268.318 284.249 266.034 281.959 263.217 281.959 C 260.401 281.959 258.117 284.249 258.117 287.074 C 258.117 289.9 260.401 292.19 263.217 292.19 Z" fill="#CCCCCC" style="" transform="matrix(1, 0, 0, 1, -1.1368683772161603e-13, 0)"/>
  <path d="M 289.74 292.19 C 292.558 292.19 294.841 289.9 294.841 287.074 C 294.841 284.249 292.558 281.959 289.74 281.959 C 286.924 281.959 284.641 284.249 284.641 287.074 C 284.641 289.9 286.924 292.19 289.74 292.19 Z" fill="#CCCCCC" style="" transform="matrix(1, 0, 0, 1, -1.1368683772161603e-13, 0)"/>
  <path d="M 263.217 297.306 C 261.199 297.306 259.227 296.706 257.55 295.581 C 255.873 294.457 254.565 292.86 253.793 290.99 C 253.021 289.12 252.818 287.064 253.212 285.077 C 253.606 283.093 254.577 281.27 256.003 279.841 C 257.43 278.408 259.248 277.434 261.227 277.039 C 263.205 276.645 265.258 276.847 267.122 277.62 C 268.986 278.396 270.579 279.708 271.7 281.39 C 272.821 283.072 273.418 285.05 273.418 287.074 C 273.416 289.786 272.34 292.388 270.427 294.306 C 268.515 296.225 265.921 297.302 263.217 297.306 Z M 263.217 278.889 C 261.603 278.889 260.026 279.368 258.683 280.268 C 257.341 281.167 256.295 282.447 255.677 283.943 C 255.06 285.438 254.898 287.084 255.213 288.671 C 255.528 290.259 256.306 291.716 257.447 292.863 C 258.589 294.007 260.042 294.787 261.626 295.103 C 263.208 295.418 264.85 295.257 266.341 294.637 C 267.833 294.017 269.107 292.967 270.003 291.621 C 270.9 290.276 271.379 288.692 271.379 287.074 C 271.376 284.904 270.516 282.825 268.986 281.289 C 267.456 279.754 265.38 278.891 263.217 278.889 Z" fill="#3F3D56" style="" transform="matrix(1, 0, 0, 1, -1.1368683772161603e-13, 0)"/>
  <path d="M 289.74 297.306 C 287.724 297.306 285.751 296.706 284.074 295.581 C 282.395 294.457 281.088 292.86 280.317 290.99 C 279.544 289.12 279.341 287.064 279.737 285.077 C 280.13 283.093 281.101 281.27 282.527 279.841 C 283.954 278.408 285.772 277.434 287.751 277.039 C 289.729 276.645 291.78 276.847 293.644 277.62 C 295.51 278.396 297.103 279.708 298.223 281.39 C 299.344 283.072 299.942 285.05 299.942 287.074 C 299.94 289.786 298.864 292.388 296.951 294.306 C 295.038 296.225 292.445 297.302 289.74 297.306 Z M 289.74 278.889 C 288.127 278.889 286.55 279.368 285.207 280.268 C 283.864 281.167 282.819 282.447 282.2 283.943 C 281.584 285.438 281.421 287.084 281.736 288.671 C 282.052 290.259 282.828 291.716 283.97 292.863 C 285.111 294.007 286.564 294.787 288.149 295.103 C 289.732 295.418 291.373 295.257 292.864 294.637 C 294.355 294.017 295.631 292.967 296.526 291.621 C 297.424 290.276 297.903 288.692 297.903 287.074 C 297.899 284.904 297.039 282.825 295.51 281.289 C 293.98 279.754 291.904 278.891 289.74 278.889 Z" fill="#3F3D56" style="" transform="matrix(1, 0, 0, 1, -1.1368683772161603e-13, 0)"/>
  <path d="M 344.828 355.5 L 212.211 355.5 L 212.211 357.544 L 344.828 357.544 L 344.828 355.5 Z" fill="#3F3D56" style="" transform="matrix(1, 0, 0, 1, -1.1368683772161603e-13, 0)"/>
  <path d="M 341.535 396.685 L 212.211 396.685 L 212.211 398.73 L 341.535 398.73 L 341.535 396.685 Z" fill="#3F3D56" style="" transform="matrix(1, 0, 0, 1, -1.1368683772161603e-13, 0)"/>
  <path d="M 135.285 153.524 C 143.557 149.712 148.997 138.814 148.686 128.066 C 148.377 117.318 142.737 107.266 134.959 102.141 C 131.168 99.703 126.832 98.251 122.341 97.91 C 117.849 97.569 113.346 98.353 109.232 100.19 C 100.884 103.755 89.677 104.726 84.66 113.583 C 80.805 120.391 82.192 135.576 84.924 143.146 C 87.283 149.688 93.051 153.374 98.678 155.437 C 104.905 157.699 111.544 158.594 118.146 158.061 C 124.748 157.528 131.159 155.578 136.943 152.345" fill="#2F2E41" style="" transform="matrix(1, 0, 0, 1, -1.1368683772161603e-13, 0)"/>
  <path d="M 185.727 487.318 L 197.618 483.437 L 188.356 435.581 L 170.802 441.308 L 185.727 487.318 Z" fill="#FFB8B8" style="" transform="matrix(1, 0, 0, 1, -1.1368683772161603e-13, 0)"/>
  <path d="M 205.009 477.258 L 182.072 484.742 L 186.771 499.226 L 224.148 487.03 C 223.531 485.128 222.547 483.366 221.25 481.846 C 219.956 480.324 218.372 479.076 216.598 478.168 C 214.819 477.261 212.88 476.713 210.892 476.556 C 208.904 476.4 206.905 476.639 205.009 477.258 Z" fill="white" style="" transform="matrix(1, 0, 0, 1, -1.1368683772161603e-13, 0)"/>
  <path d="M 79.255 487.578 L 91.763 487.578 L 97.712 439.193 L 79.254 439.195 L 79.255 487.578 Z" fill="#FFB8B8" style="" transform="matrix(1, 0, 0, 1, -1.1368683772161603e-13, 0)"/>
  <path d="M 100.695 483.994 L 76.576 483.994 L 76.576 499.226 L 115.881 499.226 C 115.881 497.225 115.49 495.245 114.727 493.398 C 113.963 491.548 112.844 489.868 111.434 488.454 C 110.024 487.041 108.349 485.919 106.507 485.153 C 104.665 484.387 102.689 483.994 100.695 483.994 Z" fill="white" style="" transform="matrix(1, 0, 0, 1, -1.1368683772161603e-13, 0)"/>
  <path d="M 79.884 467.789 C 79.959 467.789 80.034 467.786 80.111 467.782 L 93.97 467.12 C 95.138 467.063 96.239 466.562 97.05 465.721 C 97.862 464.877 98.324 463.757 98.342 462.585 L 100.22 325.078 C 100.225 324.738 100.342 324.408 100.555 324.14 C 100.767 323.874 101.063 323.686 101.394 323.607 C 101.724 323.527 102.072 323.561 102.381 323.701 C 102.691 323.842 102.945 324.082 103.103 324.383 L 176.51 463.987 C 176.966 464.862 177.69 465.567 178.577 465.993 C 179.465 466.422 180.464 466.55 181.43 466.362 L 195.222 463.726 C 195.871 463.602 196.488 463.341 197.026 462.956 C 197.564 462.572 198.015 462.075 198.344 461.499 C 198.674 460.924 198.876 460.285 198.935 459.624 C 198.997 458.963 198.912 458.299 198.693 457.673 L 145.208 305.676 L 141.093 260.714 C 141.001 259.665 140.55 258.681 139.82 257.927 C 139.088 257.17 138.119 256.692 137.076 256.571 C 121.491 254.649 99.715 241.842 91.075 236.425 C 90.546 236.09 89.953 235.868 89.332 235.774 C 88.712 235.68 88.081 235.717 87.475 235.88 C 86.862 236.046 86.291 236.336 85.794 236.731 C 85.298 237.126 84.887 237.618 84.587 238.179 C 63.776 276.969 55.816 321.4 61.862 365.028 L 75.344 463.807 C 75.489 464.911 76.031 465.923 76.866 466.658 C 77.702 467.389 78.775 467.793 79.884 467.789 Z" fill="#5EA8FF" style="" transform="matrix(1, 0, 0, 1, -1.1368683772161603e-13, 0)"/>
  <path d="M 117.189 164.085 C 103.351 164.085 92.134 152.835 92.134 138.954 C 92.134 125.076 103.351 113.824 117.189 113.824 C 131.028 113.824 142.246 125.076 142.246 138.954 C 142.246 152.835 131.028 164.085 117.189 164.085 Z" fill="#FFB8B8" style="" transform="matrix(1, 0, 0, 1, -1.1368683772161603e-13, 0)"/>
  <path d="M 142.154 271.51 L 149.7 217.439 C 151.536 209.223 150.045 200.613 145.554 193.498 C 141.065 186.384 133.94 181.349 125.752 179.501 C 117.561 177.652 108.974 179.14 101.878 183.638 C 94.783 188.135 89.756 195.277 87.907 203.489 C 85.758 213.484 81.392 225.651 82.989 238.769 C 94.161 269.872 114.444 279.463 142.154 271.51 Z" fill="white" style="" transform="matrix(1, 0, 0, 1, -1.1368683772161603e-13, 0)"/>
  <path d="M 109 187.609 L 127.363 187.609 C 128.58 187.607 129.748 187.122 130.607 186.258 C 131.468 185.396 131.953 184.225 131.954 183.005 L 131.954 176.865 C 131.953 175.645 131.468 174.474 130.607 173.611 C 129.748 172.747 128.58 172.263 127.363 172.262 L 109 172.262 C 107.784 172.263 106.616 172.747 105.757 173.611 C 104.896 174.474 104.412 175.645 104.41 176.865 L 104.41 183.005 C 104.412 184.225 104.896 185.396 105.757 186.258 C 106.616 187.122 107.784 187.607 109 187.609 Z" fill="white" style="" transform="matrix(1, 0, 0, 1, -1.1368683772161603e-13, 0)"/>
  <path d="M 15.94 289.807 C 15.443 288.28 15.285 286.66 15.477 285.067 C 15.671 283.471 16.209 281.936 17.057 280.574 C 17.905 279.21 19.039 278.049 20.382 277.173 C 21.726 276.297 23.244 275.728 24.832 275.504 L 81.988 193.43 L 98.936 210.235 L 37.424 285.628 C 37.621 288.325 36.825 291.003 35.187 293.151 C 33.549 295.301 31.181 296.773 28.534 297.286 C 25.885 297.802 23.14 297.326 20.82 295.946 C 18.5 294.568 16.763 292.384 15.94 289.807 Z" fill="#FFB8B8" style="" transform="matrix(1, 0, 0, 1, -1.1368683772161603e-13, 0)"/>
  <path d="M 64.108 218.539 L 84.75 232.359 C 85.337 232.751 86.002 233.013 86.698 233.125 C 87.397 233.237 88.108 233.197 88.789 233.009 C 89.471 232.82 90.101 232.485 90.642 232.028 C 91.182 231.573 91.619 231.007 91.921 230.364 L 102.493 207.928 C 104.48 204.904 105.19 201.213 104.469 197.662 C 103.746 194.113 101.651 190.996 98.641 188.994 C 95.632 186.99 91.952 186.267 88.411 186.979 C 84.87 187.693 81.755 189.783 79.749 192.797 L 63.193 211.131 C 62.72 211.656 62.364 212.278 62.152 212.953 C 61.938 213.628 61.873 214.342 61.96 215.045 C 62.046 215.748 62.285 216.423 62.655 217.027 C 63.026 217.629 63.521 218.145 64.108 218.539 Z" fill="white" style="" transform="matrix(1, 0, 0, 1, -1.1368683772161603e-13, 0)"/>
  <path d="M 217.86 179.527 C 217.735 180.08 217.653 180.641 217.617 181.205 L 173.795 206.563 L 163.143 200.411 L 151.788 215.324 L 169.589 228.047 C 171.027 229.077 172.759 229.609 174.524 229.567 C 176.289 229.522 177.994 228.907 179.38 227.809 L 224.569 192.053 C 226.608 192.81 228.829 192.926 230.935 192.386 C 233.043 191.848 234.936 190.676 236.364 189.032 C 237.791 187.386 238.685 185.343 238.929 183.178 C 239.171 181.009 238.748 178.82 237.719 176.898 C 236.691 174.976 235.103 173.415 233.168 172.421 C 231.231 171.427 229.039 171.046 226.884 171.333 C 224.728 171.618 222.711 172.554 221.099 174.019 C 219.487 175.484 218.358 177.404 217.86 179.527 Z" fill="#FFB8B8" style="" transform="matrix(1, 0, 0, 1, -1.1368683772161603e-13, 0)"/>
  <path d="M 161.057 224.988 L 172.067 202.679 C 172.381 202.045 172.555 201.35 172.574 200.643 C 172.597 199.935 172.465 199.23 172.191 198.576 C 171.917 197.924 171.505 197.339 170.985 196.861 C 170.465 196.382 169.847 196.021 169.177 195.804 L 145.633 188.171 C 142.387 186.582 138.643 186.35 135.227 187.523 C 131.808 188.697 128.993 191.183 127.4 194.434 C 125.806 197.686 125.564 201.441 126.725 204.871 C 127.887 208.303 130.357 211.132 133.595 212.738 L 153.85 226.849 C 154.432 227.252 155.092 227.527 155.787 227.652 C 156.482 227.776 157.196 227.75 157.879 227.573 C 158.563 227.397 159.2 227.076 159.749 226.628 C 160.298 226.182 160.743 225.623 161.057 224.988 Z" fill="white" style="" transform="matrix(1, 0, 0, 1, -1.1368683772161603e-13, 0)"/>
  <path d="M 100.376 107.304 C 99.473 107.437 98.553 107.266 97.756 106.822 C 96.961 106.376 96.333 105.679 95.971 104.838 C 95.638 103.988 95.503 103.072 95.575 102.162 C 95.65 101.251 95.931 100.369 96.395 99.583 C 97.346 98.016 98.67 96.714 100.247 95.793 C 102.068 94.574 104.169 93.848 106.35 93.688 C 107.439 93.617 108.53 93.78 109.548 94.167 C 110.568 94.557 111.492 95.16 112.26 95.938 C 113.009 96.735 113.503 97.739 113.679 98.819 C 113.857 99.899 113.707 101.007 113.252 102.003 C 112.336 103.775 110.413 104.768 108.541 105.444 C 104.826 106.779 100.867 107.3 96.932 106.972" fill="#2F2E41" style="" transform="matrix(1, 0, 0, 1, -1.1368683772161603e-13, 0)"/>
  <path d="M 92.366 150.397 C 96.744 150.603 95.988 141.283 97.36 137.106 C 98.731 132.929 100.62 127.947 104.93 127.145 C 108.463 126.49 111.656 129.082 114.733 130.941 C 120.218 134.257 127.317 135.479 133.076 132.672 C 138.835 129.863 142.338 122.36 139.535 116.584 C 138.682 114.995 137.515 113.6 136.102 112.485 C 134.689 111.368 133.062 110.554 131.326 110.095 C 127.84 109.196 124.208 109.021 120.652 109.581 C 112.721 110.557 105.1 113.266 98.326 117.518 C 93.653 120.458 89.205 124.461 87.815 129.817 C 86.422 135.171 85.856 149.733 91.295 150.655 L 92.366 150.397 Z" fill="#2F2E41" style="" transform="matrix(1, 0, 0, 1, -1.1368683772161603e-13, 0)"/>
  <path d="M 103.821 94.341 C 107.13 90.135 105.883 83.509 102.028 79.801 C 98.172 76.095 92.439 74.938 87.118 75.409 C 81.848 75.942 76.809 77.855 72.507 80.958 C 68.205 84.059 64.794 88.242 62.61 93.085 C 59.249 100.799 59.277 109.623 56.237 117.47 C 54.615 121.653 52.157 125.459 49.014 128.654 C 45.871 131.848 42.11 134.364 37.962 136.046 C 33.814 137.727 29.364 138.538 24.892 138.43 C 20.419 138.323 16.014 137.298 11.952 135.419 C 6.659 132.972 1.62 128.179 1.922 122.34 C -1.425 135.281 4.602 150.083 16.022 156.972 C 22.711 161.01 30.635 162.379 38.383 163.323 C 43.434 163.936 48.625 164.393 53.553 163.128 C 60.448 161.357 66.221 156.253 69.717 150.033 C 73.214 143.814 74.588 136.569 74.642 129.429 C 74.683 123.867 73.956 118.304 74.341 112.755 C 74.725 107.206 76.387 101.468 80.396 97.628 C 84.406 93.787 91.173 92.521 95.575 95.905 C 97.342 97.265 98.638 99.25 100.63 100.254 C 102.621 101.257 105.766 100.477 105.9 98.245 L 103.821 94.341 Z" fill="#2F2E41" style="" transform="matrix(1, 0, 0, 1, -1.1368683772161603e-13, 0)"/>
</svg>