<svg width="322" height="391" viewBox="0 0 322 391" fill="none" xmlns="http://www.w3.org/2000/svg">
    <path opacity="0.1"
        d="M170.5 391C195.629 391 216 387.418 216 383C216 378.582 195.629 375 170.5 375C145.371 375 125 378.582 125 383C125 387.418 145.371 391 170.5 391Z"
        fill="#5EA8FF" />
    <path opacity="0.1"
        d="M5.96307 169H53V238.118H9.40709C9.2902 238.827 9.17892 239.542 9.05884 240.256H53V296C52.9207 295.974 52.8511 295.944 52.7774 295.914C51.5342 295.383 50.3013 294.825 49.0684 294.225L48.2807 293.84C47.0454 293.211 45.8086 292.544 44.5741 291.842C44.1426 291.597 43.7119 291.341 43.2852 291.083C36.4244 286.939 30.1904 281.688 24.8027 275.512C24.645 275.347 24.496 275.173 24.3391 275.013C23.5882 274.133 22.8517 273.244 22.1384 272.336L21.349 271.335C20.5069 270.221 19.6911 269.077 18.8985 267.918C18.7824 267.748 18.672 267.578 18.5511 267.417C15.3264 262.6 12.6518 257.383 10.5791 251.879C10.5143 251.714 10.4582 251.533 10.3974 251.379C9.76253 249.613 9.19814 247.831 8.7066 246.033C8.49365 245.278 8.2903 244.533 8.11418 243.75C8.04853 243.52 7.99329 243.295 7.94126 243.07C5.30902 231.992 5 220.486 5 209.058C5 207.724 5 206.384 5 205.06C5 200.439 5.04963 195.786 5.12329 191.14C5.12329 189.936 5.16972 188.736 5.19374 187.527C5.25858 184.459 5.35145 181.391 5.47153 178.324C5.50035 177.469 5.53718 176.62 5.578 175.771C5.578 175.281 5.60122 174.791 5.64845 174.3C5.75893 172.522 5.8518 170.758 5.96307 169Z"
        fill="#5EA8FF" />
    <path opacity="0.1"
        d="M53 92H27C31.2264 84.9538 35.8441 78.1834 40.8289 71.7246C44.6907 66.6713 48.7679 61.7456 53 57V92Z"
        fill="#5EA8FF" />
    <path opacity="0.1"
        d="M53 94V167H6C6 166.789 6.0321 166.573 6.04735 166.363C6.08827 165.786 6.13 165.209 6.17654 164.636C6.2287 163.965 6.28327 163.288 6.34426 162.629C6.40364 161.972 6.46944 161.168 6.53925 160.44C6.60907 159.713 6.67326 158.976 6.75271 158.247C6.83215 157.521 6.90196 156.792 6.98542 156.07C7.06807 155.346 7.1427 154.614 7.23097 153.891C7.30079 153.291 7.37461 152.692 7.44844 152.09C7.55597 151.242 7.66831 150.388 7.78948 149.546C7.78948 149.419 7.82078 149.289 7.83923 149.17C8.68743 142.997 9.84378 136.879 11.3018 130.841C12.8265 124.508 14.7749 118.301 17.1317 112.272C19.6346 105.964 22.5668 99.8662 25.9018 94.0249L53 94Z"
        fill="#5EA8FF" />
    <path opacity="0.1"
        d="M165.511 169.149L65 238.339H165.511V169.149ZM65 240.475V299.893C65.5751 300.022 66.1445 300.148 66.7108 300.252C67.4805 300.412 68.2454 300.558 69.0295 300.682C69.1785 300.707 69.3314 300.733 69.4932 300.748C69.7992 300.803 70.1147 300.847 70.4207 300.894C71.1952 301.008 71.9641 301.104 72.7394 301.177C73.1046 301.218 73.4754 301.253 73.8471 301.284L74.7417 301.358C75.2295 301.398 75.7108 301.428 76.1882 301.443C76.4861 301.443 76.7825 301.472 77.0884 301.483C77.3207 301.483 77.5522 301.483 77.7925 301.483C78.0343 301.483 78.3771 301.483 78.6695 301.483C79.0683 301.483 79.4664 301.483 79.8613 301.483H80.3939C80.7927 301.483 81.1916 301.483 81.5849 301.443H81.6137C81.8868 301.443 82.1663 301.443 82.4443 301.402C82.5211 301.407 82.598 301.407 82.6757 301.402C82.9072 301.402 83.1395 301.402 83.3613 301.368H83.5239L85.0769 301.238C85.5879 301.189 86.1029 301.124 86.6211 301.063L87.6791 300.928C91.9785 300.278 96.2323 299.302 100.407 298.007C109.782 295.185 118.952 291.24 128.323 288.349C140.44 284.623 153.825 282.792 165.534 287.349V240.475H65ZM165.511 92.1209V0.00813221C154.506 -0.120111 143.532 1.26892 132.855 4.13915C107.402 11.037 84.5667 25.9965 65 45.1023V92.1153H70.0443V94.2513H65V167.013H165.511V94.2569H90.7571V92.1209H165.511ZM294.61 61.0068C288.313 60.7671 282.054 58.6167 276.393 55.296C265.566 48.9432 256.918 39.135 247.255 30.8577C227.178 13.6171 202.279 3.2142 176.736 0.634117V92.1209H320.219L320.575 91.7161L294.61 61.0068ZM307.682 58.5061L321.54 74.9107V54.2051C316.898 54.8247 312.833 56.3003 307.7 58.486L307.682 58.5061ZM321.54 314.646V240.475H292.009C291.93 240.16 291.851 239.84 291.758 239.52C291.846 239.84 291.92 240.16 292.004 240.475H176.755V294.116C177.849 294.991 178.929 295.911 179.999 296.847C181.156 297.847 182.295 298.903 183.44 299.937L184.596 300.969C185.147 301.468 185.703 301.969 186.264 302.438C187.376 303.411 188.501 304.373 189.635 305.32C190.196 305.819 190.772 306.269 191.341 306.74C200.396 314.207 209.947 320.945 219.918 326.901C222.153 328.235 224.406 329.537 226.681 330.807C228.199 331.642 229.723 332.472 231.254 333.277C233.553 334.489 235.872 335.655 238.209 336.779C259.753 347.211 282.537 354.37 305.905 358.05C311.095 358.876 316.305 359.526 321.535 360V314.641H322L321.54 314.646ZM176.755 94.2569V167.013H321.559V94.2569H176.755ZM176.755 169.149V238.339H321.559V169.149H176.755Z"
        fill="#5EA8FF" />
    <path opacity="0.1"
        d="M53 131V167H6C6 166.79 6.0321 166.575 6.04735 166.366C6.08827 165.792 6.13 165.218 6.17654 164.648C6.2287 163.98 6.28327 163.306 6.34426 162.651C6.40364 161.997 6.46944 161.197 6.53925 160.473C6.60907 159.75 6.67326 159.016 6.75271 158.291C6.83215 157.568 6.90196 156.843 6.98542 156.124C7.06807 155.404 7.1427 154.676 7.23097 153.956C7.30079 153.359 7.37461 152.763 7.44844 152.164C7.55597 151.32 7.66831 150.47 7.78948 149.633C7.78948 149.506 7.82078 149.377 7.83923 149.258C8.68743 143.116 9.84378 137.028 11.3018 131.02L53 131Z"
        fill="#5EA8FF" />
    <path opacity="0.1"
        d="M5.96307 169H53V238.118H9.40709C9.2902 238.827 9.17892 239.542 9.05884 240.256H53V296C52.9207 295.974 52.8511 295.944 52.7774 295.914C51.5342 295.383 50.3013 294.825 49.0684 294.225L48.2807 293.84C47.0454 293.211 45.8086 292.544 44.5741 291.842C44.1426 291.597 43.7119 291.341 43.2852 291.083C36.4244 286.939 30.1904 281.688 24.8027 275.512C24.645 275.347 24.496 275.173 24.3391 275.013C23.5882 274.133 22.8517 273.244 22.1384 272.336L21.349 271.335C20.5069 270.221 19.6911 269.077 18.8985 267.918C18.7824 267.748 18.672 267.578 18.5511 267.417C15.3264 262.6 12.6518 257.383 10.5791 251.879C10.5143 251.714 10.4582 251.533 10.3974 251.379C9.76253 249.613 9.19814 247.831 8.7066 246.033C8.49365 245.278 8.2903 244.533 8.11418 243.75C8.04853 243.52 7.99329 243.295 7.94126 243.07C5.30902 231.992 5 220.486 5 209.058C5 207.724 5 206.384 5 205.06C5 200.439 5.04963 195.786 5.12329 191.14C5.12329 189.936 5.16972 188.736 5.19374 187.527C5.25858 184.459 5.35145 181.391 5.47153 178.324C5.50035 177.469 5.53718 176.62 5.578 175.771C5.578 175.281 5.60122 174.791 5.64845 174.3C5.75893 172.522 5.8518 170.758 5.96307 169Z"
        fill="#5EA8FF" />
    <path opacity="0.1" d="M100 104.994V167H65V104.994H69.9897V84H90.4738V104.994H100Z"
        fill="#5EA8FF" />
    <path opacity="0.1" d="M100 169H65V238H100V169Z" fill="#5EA8FF" />
    <path opacity="0.1"
        d="M65 240H100V297.529C95.8715 298.822 91.6638 299.797 87.4109 300.444L86.3643 300.586C85.8509 300.65 85.3415 300.705 84.8368 300.76C84.3321 300.816 83.81 300.855 83.3006 300.89H83.1406C82.9195 300.89 82.6818 300.92 82.4655 300.925H82.2318C81.9577 300.925 81.6812 300.955 81.4055 300.966C81.0165 300.991 80.6267 300.995 80.2274 301C80.0578 301 79.8978 301 79.7275 301C79.3329 301 78.9431 301 78.5486 301H77.6818C77.4481 301 77.2239 301 76.9799 301L76.0949 300.966C75.637 300.966 75.141 300.91 74.6649 300.876L73.7839 300.806L72.6874 300.695C71.9173 300.619 71.1512 300.525 70.3946 300.411L69.4771 300.27L69.0176 300.201C68.2523 300.07 67.4949 299.93 66.724 299.769C66.1615 299.665 65.6013 299.535 65.0317 299.409L65 240Z"
        fill="#5EA8FF" />
    <path opacity="0.1" d="M321 169V238H176V208.238H253.233V225.795H291.783V169H321Z" fill="#5EA8FF" />
    <path opacity="0.1"
        d="M322 314.433H321.534V360C316.283 359.52 311.048 358.869 305.83 358.045C282.331 354.339 259.424 347.137 237.764 336.645C231.51 333.613 225.384 330.303 219.384 326.715C209.363 320.734 199.763 313.967 190.66 306.474C188.373 304.587 186.116 302.655 183.889 300.68C182.347 299.309 180.815 297.903 179.261 296.538C178.186 295.599 177.1 294.673 176 293.79V239.958H291.826C291.746 239.638 291.667 239.316 291.583 239C291.671 239.316 291.756 239.638 291.835 239.958H321.534V314.402C321.691 314.408 321.846 314.423 322 314.433Z"
        fill="#5EA8FF" />
    <path opacity="0.1" d="M321 117H306V138H321V117Z" fill="#5EA8FF" />
    <path opacity="0.1" d="M321 162H306V167H321V162Z" fill="#5EA8FF" />
    <path opacity="0.1" d="M321 169H306V184H321V169Z" fill="#5EA8FF" />
    <path opacity="0.1" d="M321 207H306V229H321V207Z" fill="#5EA8FF" />
    <path opacity="0.1" d="M321 252H306V274H321V252Z" fill="#5EA8FF" />
    <path opacity="0.1"
        d="M321.539 314.865C321.694 314.865 321.848 314.865 322 314.896H321.539V320H306V298H321.539V314.865Z"
        fill="#5EA8FF" />
    <path opacity="0.1" d="M321 343V360C315.985 359.52 310.985 358.867 306 358.041V343H321Z"
        fill="#5EA8FF" />
    <path opacity="0.1" d="M243 237H176V238H243V237Z" fill="#5EA8FF" />
    <path opacity="0.1" d="M243 240H176V246H243V240Z" fill="#5EA8FF" />
    <path opacity="0.1" d="M243 267H176V276H243V267Z" fill="#5EA8FF" />
    <path opacity="0.1"
        d="M243 297V307H191.214C188.965 305.106 186.744 303.162 184.551 301.166C183.034 299.785 181.532 298.369 180 297H243Z"
        fill="#5EA8FF" />
    <path opacity="0.1"
        d="M243 327.015V337H237.657C231.653 333.944 225.767 330.611 220 327L243 327.015Z"
        fill="#5EA8FF" />
    <path opacity="0.1" d="M87 110H74V124H87V110Z" fill="#5EA8FF" />
    <path opacity="0.1" d="M87 143H74V157H87V143Z" fill="#5EA8FF" />
    <path opacity="0.1" d="M87 176H74V190H87V176Z" fill="#5EA8FF" />
    <path opacity="0.1" d="M87 209H74V223H87V209Z" fill="#5EA8FF" />
    <path opacity="0.1" d="M87 242H74V256H87V242Z" fill="#5EA8FF" />
    <path opacity="0.1" d="M87 275H74V289H87V275Z" fill="#5EA8FF" />
    <path opacity="0.1"
        d="M8 149V157H53V149H8ZM12.4835 156.498H8.81301V149.491H12.5115L12.4835 156.498ZM16.9639 156.498H13.2654V149.491H16.9639V156.498ZM21.4347 156.498H17.737V149.491H21.4347V156.498ZM25.9158 156.498H22.2213V149.491H25.9206L25.9158 156.498ZM30.3922 156.498H26.6921V149.491H30.3922V156.498ZM34.8701 156.498H31.1717V149.491H34.8701V156.498ZM39.3505 156.498H35.6528V149.491H39.3505V156.498ZM43.8269 156.498H40.1284V149.491H43.8269V156.498ZM48.3016 156.498H44.6031V149.491H48.3016V156.498ZM52.778 156.498H49.0779V149.491H52.778V156.498Z"
        fill="#5EA8FF" />
    <path opacity="0.1"
        d="M8 173V181H53V173H8ZM12.4835 180.493H8.81301V173.506H12.5115L12.4835 180.493ZM16.9639 180.493H13.2654V173.506H16.9639V180.493ZM21.4347 180.493H17.737V173.506H21.4347V180.493ZM25.9158 180.493H22.2213V173.506H25.9206L25.9158 180.493ZM30.3922 180.493H26.6921V173.506H30.3922V180.493ZM34.8701 180.493H31.1717V173.506H34.8701V180.493ZM39.3505 180.493H35.6528V173.506H39.3505V180.493ZM43.8269 180.493H40.1284V173.506H43.8269V180.493ZM48.3016 180.493H44.6031V173.506H48.3016V180.493ZM52.778 180.493H49.0779V173.506H52.778V180.493Z"
        fill="#5EA8FF" />
    <path opacity="0.1"
        d="M8 196V205H53V196H8ZM12.4835 204.415H8.81301V196.563H12.5115L12.4835 204.415ZM16.9639 204.415H13.2654V196.563H16.9639V204.415ZM21.4347 204.415H17.737V196.563H21.4347V204.415ZM25.9158 204.415H22.2213V196.563H25.9206L25.9158 204.415ZM30.3922 204.415H26.6921V196.563H30.3922V204.415ZM34.8701 204.415H31.1717V196.563H34.8701V204.415ZM39.3505 204.415H35.6528V196.563H39.3505V204.415ZM43.8269 204.415H40.1284V196.563H43.8269V204.415ZM48.3016 204.415H44.6031V196.563H48.3016V204.415ZM52.778 204.415H49.0779V196.563H52.778V204.415Z"
        fill="#5EA8FF" />
    <path opacity="0.1"
        d="M8 220V228H53V220H8ZM12.4835 227.503H8.81301V220.498H12.5115L12.4835 227.503ZM16.9639 227.503H13.2654V220.498H16.9639V227.503ZM21.4347 227.503H17.737V220.498H21.4347V227.503ZM25.9158 227.503H22.2213V220.498H25.9206L25.9158 227.503ZM30.3922 227.503H26.6921V220.498H30.3922V227.503ZM34.8701 227.503H31.1717V220.498H34.8701V227.503ZM39.3505 227.503H35.6528V220.498H39.3505V227.503ZM43.8269 227.503H40.1284V220.498H43.8269V227.503ZM48.3016 227.503H44.6031V220.498H48.3016V227.503ZM52.778 227.503H49.0779V220.498H52.778V227.503Z"
        fill="#5EA8FF" />
    <path opacity="0.1"
        d="M8 244C8.18207 244.754 8.3858 245.508 8.59916 246.251V244.502H12.3136V251.507H10.326C10.387 251.671 10.4472 251.847 10.5081 252H53V244H8ZM16.8229 251.507H13.1077V244.502H16.8229V251.507ZM21.3138 251.507H17.5985V244.502H21.3138V251.507ZM25.8134 251.507H22.0886V244.502H25.8038L25.8134 251.507ZM30.3067 251.507H26.5923V244.502H30.3067V251.507ZM34.8064 251.507H31.0919V244.502H34.8064V251.507ZM39.3069 251.507H35.5916V244.502H39.3069V251.507ZM43.8017 251.507H40.0857V244.502H43.8017V251.507ZM48.295 251.507H44.5813V244.502H48.295V251.507ZM52.7899 251.507H49.0754V244.502H52.7899V251.507Z"
        fill="#5EA8FF" />
    <path opacity="0.1"
        d="M19 267C19.1146 267.177 19.2236 267.377 19.3429 267.555H21.762V271.34C22.0235 271.719 22.2803 272.096 22.5442 272.452V267.532H26.2045V275.445H24.7216C24.8677 275.629 25.0107 275.823 25.179 276H53V267H19ZM30.6233 275.445H26.963V267.565H30.6233V275.445ZM35.0531 275.445H31.3944V267.565H35.0531V275.445ZM39.4853 275.445H35.8274V267.565H39.4853V275.445ZM43.9136 275.445H40.2548V267.565H43.9136V275.445ZM48.3403 275.445H44.6815V267.565H48.3403V275.445ZM52.7685 275.445H49.1082V267.565H52.7685V275.445Z"
        fill="#5EA8FF" />
    <path opacity="0.1"
        d="M44 291C44.3901 291.264 44.7892 291.507 45.1919 291.771V291.517H48.6283V293.802L49.3574 294.203V291.517H52.7931V295.909C52.8591 295.947 52.9281 295.979 53 296V291H44Z"
        fill="#5EA8FF" />
    <path
        d="M213.748 189.834C213.748 189.834 211.924 189.56 211.924 186.696C211.924 183.832 210.619 178.483 210.619 178.483C210.619 178.459 209.488 169.168 207.927 167.692C206.367 166.215 204.362 157.544 204.362 157.544C204.362 157.544 204.019 152.84 203.32 151.825C202.619 150.813 201.675 148.333 200.282 144.796C198.887 141.259 193.075 138.809 193.075 138.809C193.075 138.809 182.567 132.242 179.588 130.103C179.317 129.927 179.064 129.721 178.834 129.488C178.314 128.756 176.055 128.74 176.055 128.74C175.819 127.134 175.591 125.289 175.517 123.618C175.517 123.437 175.517 123.257 175.494 123.079C178.815 120.964 181.316 117.629 182.538 113.688C182.593 113.498 182.642 113.298 182.691 113.109C183.094 112.966 183.422 112.647 183.595 112.232C183.863 111.588 183.867 110.833 184.202 110.235C184.59 109.528 185.331 109.148 185.915 108.614C187.387 107.267 187.768 104.997 187.699 102.931C187.651 101.26 187.403 99.5732 187.499 97.9117L187.526 97.4919C187.555 97.2425 187.587 96.9938 187.629 96.7547C187.855 95.5162 188.351 94.3489 188.628 93.1216C188.907 91.895 188.935 90.5126 188.286 89.4556C187.337 87.9028 185.359 87.5942 183.622 87.4343C181.655 87.2536 179.894 87.4886 178.634 85.728C178.045 84.8085 177.381 83.9442 176.652 83.1486C176.393 82.8888 173.873 81.2321 173.873 81.1233C171.414 79.8968 168.627 79.6658 166.023 80.4741C164.717 80.8843 163.486 81.5511 162.161 81.8861C159.303 82.6137 156.015 81.827 153.588 83.5876C152.236 84.5854 151.426 86.1726 150.666 87.7181C150.048 88.9926 149.421 90.2647 148.785 91.5344C147.762 93.6261 146.72 95.7521 146.29 98.0668C146.198 98.5714 146.142 99.0807 146.122 99.5932V99.618C146.122 99.8027 146.122 99.9874 146.122 100.171V100.407C146.122 100.581 146.122 100.751 146.15 100.905C146.178 101.06 146.174 101.111 146.187 101.215C146.202 101.319 146.225 101.555 146.252 101.714C146.28 101.874 146.336 102.153 146.39 102.372C146.414 102.468 146.446 102.556 146.474 102.647C146.521 102.815 146.576 102.981 146.637 103.146C146.67 103.231 146.701 103.321 146.739 103.405C146.807 103.58 146.891 103.749 146.975 103.904C147.011 103.974 147.04 104.039 147.075 104.104C147.206 104.335 147.348 104.558 147.503 104.773C148.494 106.105 149.952 106.952 151.032 108.2C151.032 108.25 151.032 108.3 151.032 108.344C151.032 108.484 151.032 108.619 151.032 108.759C151.147 114.407 153.85 119.627 158.247 122.704C158.247 122.893 158.271 123.088 158.28 123.277C158.37 124.758 158.353 126.245 158.229 127.722C157.846 127.238 157.28 126.967 156.69 126.985C156.493 126.974 156.292 126.993 156.098 127.04L156.057 127.004V127.049C155.038 127.318 153.783 128.461 152.583 131.709C152.583 131.709 148.933 136.139 146.155 135.955C143.376 135.771 136.34 140.565 136.34 140.565C136.34 140.565 129.478 145.364 128.005 150.254C127.182 153.027 126.194 155.74 125.05 158.377L116.566 177.21L115 192.153C115 192.153 115.866 198.799 115.694 199.813C115.524 200.825 119.256 209.961 119.256 209.961C119.256 209.961 131.589 233.304 136.629 234.503L136.99 234.229C137.205 234.349 137.434 234.442 137.67 234.503L138.709 233.715C138.77 234.594 138.743 235.476 138.629 236.348C137.934 238.655 138.888 253.697 140.102 256.645C141.315 259.594 140.884 298.257 140.884 298.257L140.714 301.668C140.714 301.668 140.714 301.779 140.754 301.967L140.714 302.777L140.838 302.846C140.968 303.929 140.926 305.027 140.714 306.094C140.278 307.591 140.102 311.822 140.102 311.822C140.102 311.822 136.633 335.71 138.277 340.509C139.921 345.31 141.319 350.569 141.319 350.569C141.319 350.569 143.057 356.556 141.403 357.578C139.75 358.601 135.049 360.318 136.018 362.812C136.897 365.117 140.237 371.293 140.732 372.197L140.69 372.671L140.008 380.619C140.119 381.668 140.383 382.691 140.792 383.652C141.538 385.384 142.987 387.181 145.742 386.985C146.206 386.949 146.744 386.891 147.262 386.816C152.306 386.088 158.516 383.662 158.516 383.662C158.193 383.442 157.898 383.178 157.636 382.879C157.135 382.355 156.854 381.634 156.862 380.883C156.937 379.437 154.422 372.541 153.797 370.844C153.699 370.6 153.648 370.46 153.648 370.46C153.648 370.46 159.382 364.004 158.428 358.281C158.428 358.281 152.083 354.291 154.172 352.101C156.261 349.91 159.993 343.618 159.993 343.618C159.993 343.618 160.165 320.094 159.993 316.583C159.814 314.144 159.922 311.69 160.314 309.282C160.382 308.918 160.466 308.565 160.554 308.214C163.442 308.679 166.358 308.918 169.279 308.927C170.344 308.927 171.427 308.927 172.522 308.858C172.522 309.191 172.535 309.55 172.563 309.937C172.804 315.763 173.253 325.981 173.618 329.777C174.138 335.222 177.003 349.89 177.003 349.89C177.003 349.89 171.534 353.671 177.958 362.992C177.958 362.992 177.958 366.369 177.532 366.858C177.077 368.457 176.71 370.084 176.434 371.728C176.166 373.484 176.055 375.26 176.49 376.184C177.532 378.388 183.783 378.209 183.783 378.209L183.937 378.179C186.322 377.914 188.705 378.688 190.556 380.33C192.931 382.385 201.948 381.482 206.83 380.829C208.743 380.569 210.022 380.33 210.022 380.33C210.083 380.096 210.106 379.852 210.087 379.61C210.035 378.32 209.095 375.484 202.723 372.955C202.723 372.955 196.729 368.615 196.812 364.834H196.687H195.992C196.498 364.802 196.822 364.834 196.822 364.834C196.822 364.834 194.474 355.603 195.431 354.854C196.391 354.106 193.519 343.878 193.519 343.878C193.519 343.878 191.875 326.715 191.787 325.513C191.791 324.48 191.936 323.455 192.218 322.47L191.787 313.059C191.787 313.059 191.705 309.93 191.787 308.912C191.772 308.03 191.707 307.147 191.588 306.275C191.547 305.924 191.505 305.561 191.459 305.201C193.705 304.587 195.164 304.019 195.164 304.019L194.905 271.264C196.812 267.273 197.164 258.516 197.155 252.305C197.155 248.313 196.989 245.359 196.989 245.359L199.595 240.774C199.595 240.774 200.198 235.286 199.244 234.084C198.823 233.54 199.011 232.977 199.359 232.512C199.539 232.358 199.731 232.218 199.929 232.093C199.929 232.093 199.902 232.048 199.869 231.983C200.051 231.82 200.244 231.671 200.448 231.54C200.448 231.54 199.521 229.992 200.351 229.339C201.129 229.908 201.823 230.337 202.351 230.685C202.315 231.05 202.278 231.26 202.278 231.26L202.5 230.761C203.009 231.07 203.32 231.26 203.32 231.26C203.32 231.26 207.403 222.494 207.316 221.201C207.228 219.909 210.095 214.467 210.095 214.467C210.095 214.467 210.443 211.607 212.008 210.411C213.573 209.212 213.222 200.536 213.222 200.536C213.222 200.536 213.657 196.016 214.699 194.17C215.74 192.324 213.748 189.834 213.748 189.834ZM135.59 185.987L135.669 188.078C135.206 187.275 134.873 186.696 134.873 186.696L135.59 185.987Z"
        fill="url(#paint0_linear_0_1)" />
    <path
        d="M204 227.339L202.98 232C202.98 232 194.804 227.527 193.33 221.843C191.856 216.158 195.797 214 195.797 214L203.415 217.46L204 227.339Z"
        fill="white" />
    <path opacity="0.1"
        d="M204 227.339L202.98 232C202.98 232 194.804 227.527 193.33 221.843C191.856 216.158 195.797 214 195.797 214L203.415 217.46L204 227.339Z"
        fill="black" />
    <path
        d="M159 383.76C159 383.76 151.64 386.626 146.583 386.986C143.897 387.176 142.485 385.431 141.759 383.75C141.362 382.815 141.106 381.82 141 380.8L141.658 373.074L142.008 368.959L152.755 366L154.277 370.934L154.42 371.309C155.031 372.957 157.482 379.66 157.408 381.059C157.401 381.783 157.674 382.478 158.162 382.984C158.409 383.279 158.689 383.54 159 383.76Z"
        fill="white" />
    <path
        d="M208.993 379.98C209.012 380.224 208.99 380.471 208.929 380.708C208.929 380.708 193.211 383.615 189.995 380.708C188.16 378.99 185.76 378.211 183.38 378.559C183.38 378.559 177.297 378.742 176.283 376.523C175.86 375.591 175.97 373.782 176.232 372C176.499 370.33 176.854 368.68 177.297 367.056L177.541 366.843L178.988 365.555L195.93 365H196.059C195.975 368.839 201.809 373.244 201.809 373.244C208.005 375.789 208.92 378.666 208.993 379.98Z"
        fill="white" />
    <path opacity="0.1"
        d="M208.995 379.98C209.011 380.225 208.988 380.471 208.927 380.708C208.927 380.708 193.21 383.615 189.994 380.708C188.161 378.991 185.76 378.211 183.382 378.559C183.382 378.559 177.295 378.742 176.285 376.522C175.862 375.586 175.967 373.781 176.23 372C178.572 372.26 182.271 372.907 183.723 374.45C185.919 376.797 189.64 379.139 191.923 379.323C193.709 379.45 204.402 379.826 208.995 379.98Z"
        fill="black" />
    <path opacity="0.1"
        d="M159 383.752C159 383.752 151.314 386.625 146.034 386.986C143.228 387.177 141.753 385.427 141 383.736C142.955 384.406 145.668 385.11 147.095 384.465C148.785 383.702 154.778 383.209 158.14 383C158.394 383.284 158.684 383.537 159 383.752Z"
        fill="black" />
    <path
        d="M169.82 147.409C163.458 144.807 155.277 136.218 157.319 132.203C157.773 131.192 158.043 130.098 158.114 128.981C158.246 127.465 158.266 125.94 158.172 124.42C158.029 121.931 157.745 119.454 157.319 117C157.319 117 177.178 117.471 176.022 120.548C175.684 121.451 175.632 123.016 175.723 124.77C175.815 126.522 176.056 128.504 176.307 130.182C176.654 132.483 177 134.236 177 134.236C177 134.236 175.786 136.025 175.073 136.121C174.36 136.218 178.946 151.112 169.82 147.409Z"
        fill="#CF6F80" />
    <path opacity="0.1"
        d="M154 371.116L153.856 371.275C148.083 364.276 141.102 373 141.102 373L141 372.817L141.356 368.851L152.305 366L153.856 370.754L154 371.116Z"
        fill="black" />
    <path opacity="0.1"
        d="M196 365.601C196 365.601 191.813 365.496 189.58 367.836C187.346 370.179 176.548 368.346 177.015 367.836C177.152 367.586 177.235 367.297 177.257 366.997L178.722 365.601L195.885 365C195.95 365.369 196 365.601 196 365.601Z"
        fill="black" />
    <path
        d="M160.952 306.969C160.637 307.806 160.398 308.673 160.239 309.559C159.848 311.986 159.739 314.454 159.915 316.91C160.089 320.442 159.915 344.122 159.915 344.122C159.915 344.122 156.21 350.436 154.143 352.662C152.078 354.888 158.36 358.886 158.36 358.886C159.298 364.641 153.619 371.143 153.619 371.143C147.847 363.621 140.866 373 140.866 373C140.866 373 137.073 365.933 136.126 363.409C135.18 360.885 139.832 359.139 141.467 358.114C143.102 357.089 141.386 351.048 141.386 351.048C141.386 351.048 140.005 345.752 138.364 340.922C136.725 336.09 140.174 312.043 140.174 312.043C140.174 312.043 140.352 307.772 140.778 306.283C140.993 305.208 141.036 304.103 140.904 303.012C140.876 302.644 140.843 302.337 140.821 302.129C140.795 301.922 140.778 301.825 140.778 301.825L140.843 301.705L143.186 297C143.186 297 162.076 304.007 160.952 306.969Z"
        fill="#5EA8FF" />
    <path
        d="M196 364.957C196 364.957 191.818 364.861 189.588 366.958C187.356 369.053 176.572 367.418 177.038 366.958C177.503 366.498 177.465 363.091 177.465 363.091C171.14 353.799 176.535 350.028 176.535 350.028C176.535 350.028 173.709 335.398 173.198 329.972C172.84 326.181 172.399 315.994 172.162 310.178C172.059 307.677 172 305.955 172 305.955L177.168 304.836L177.833 304.691L190.298 302C190.298 302 190.642 304.5 190.875 306.546C190.99 307.42 191.056 308.3 191.07 309.182C190.985 310.183 191.07 313.314 191.07 313.314L191.493 322.7C191.216 323.685 191.074 324.707 191.07 325.736C191.154 326.932 192.776 344.046 192.776 344.046C192.776 344.046 195.597 354.259 194.634 354.994C193.672 355.73 196 364.957 196 364.957Z"
        fill="#5EA8FF" />
    <path opacity="0.1"
        d="M175.953 120.459C175.629 121.339 175.579 122.866 175.666 124.575C170.455 127.926 163.909 127.795 158.818 124.238C158.682 121.812 158.408 119.393 158 117C158 117 177.063 117.45 175.953 120.459Z"
        fill="black" />
    <path
        d="M182.994 109.66C182.996 111.486 182.731 113.3 182.208 115.036C178.385 127.724 163.321 131.169 155.093 121.238C152.545 118.164 151.096 114.204 151.002 110.076C151.002 109.934 151.002 109.801 151.002 109.66C150.792 96.3156 163.992 87.7285 174.762 94.203C179.932 97.3111 183.099 103.255 182.998 109.66H182.994Z"
        fill="#CF6F80" />
    <path opacity="0.1"
        d="M169.82 147.409C163.458 144.81 155.277 136.23 157.319 132.219C157.773 131.209 158.043 130.116 158.114 129L166.822 136.518L172.209 141.16L176.307 130.204C176.654 132.503 177 134.256 177 134.256C177 134.256 175.786 136.042 175.073 136.139C174.36 136.235 178.946 151.109 169.82 147.409Z"
        fill="black" />
    <path
        d="M191 179.737L184.135 306.356L175.182 307L152 233.58L155.803 146.416L156.603 128L166.911 137.294L172.002 141.875L175.984 130.752L183.386 137.834L191 179.737Z"
        fill="#5EA8FF" />
    <path opacity="0.1"
        d="M160.952 307.311C160.641 308.18 160.405 309.08 160.247 310C153.61 308.842 147.164 306.564 141.126 303.243L141 303.17L141.042 302.327L141.066 301.886L143.382 297C143.382 297 162.064 304.235 160.952 307.311Z"
        fill="black" />
    <path opacity="0.1"
        d="M178 309.41C176.076 309.702 174.133 309.899 172.184 310C172.069 307.659 172 306.048 172 306.048L177.848 305L178 309.41Z"
        fill="black" />
    <path opacity="0.1"
        d="M191 306.498C187.707 307.414 182.62 308.443 178.065 307.799L178 304.662L190.426 302C190.426 302 190.769 304.449 191 306.498Z"
        fill="black" />
    <path opacity="0.1"
        d="M178 308.26C159.027 311.754 141.651 301.742 141.651 301.742L141.817 298.349C141.817 298.349 142.248 259.895 141.055 256.946C139.86 253.998 138.929 239.048 139.606 236.754C140.281 234.459 137.139 200.049 137.139 200.049L136.63 186.081L118 177.947L126.329 159.229C127.454 156.605 128.423 153.907 129.225 151.15C130.674 146.29 137.399 141.516 137.399 141.516C137.399 141.516 144.293 136.747 147.019 136.927C149.745 137.107 153.317 132.707 153.317 132.707C155.955 125.459 158.342 128.741 158.342 128.741C158.342 129.084 158.342 128.741 158.213 129.814C157.287 137.77 173.178 162.911 173.405 163.356L174.918 203.092L176.45 253.38L178 308.26Z"
        fill="black" />
    <path
        d="M178 308.26C158.716 311.753 141.05 301.743 141.05 301.743L141.224 298.351C141.224 298.351 141.662 259.903 140.443 256.954C139.224 254.007 138.285 239.059 138.976 236.765C139.668 234.472 136.468 200.067 136.468 200.067L135.947 186.102L117 177.937L125.467 159.224C126.608 156.599 127.59 153.901 128.412 151.144C129.879 146.288 136.718 141.514 136.718 141.514C136.718 141.514 143.726 136.745 146.492 136.925C149.257 137.104 152.895 132.706 152.895 132.706C155.578 125.459 158.537 128.741 158.537 128.741C158.537 129.085 158.255 129.239 158.406 129.813C160.476 137.529 173.1 162.905 173.33 163.348L174.887 203.079L176.443 253.359L178 308.26Z"
        fill="white" />
    <path opacity="0.1"
        d="M173 165C170.898 164.065 159.765 150.51 159.765 150.51V147.425C159.362 146.408 156.954 147.029 155 147.74L155.839 129L156.793 129.844C158.881 137.701 172.758 164.548 173 165Z"
        fill="black" />
    <path
        d="M173 164C171.01 163.063 160.499 149.51 160.499 149.51V146.424C160.117 145.408 157.844 146.027 156 146.74L156.797 128L157.696 128.845C159.672 136.702 172.78 163.553 173 164Z"
        fill="white" />
    <path opacity="0.1"
        d="M142.013 230.459C142.26 230.459 154.851 229 154.851 229C154.851 229 162.476 245.53 161.976 249.552C161.476 253.574 160.571 257.134 157.504 256.504C154.437 255.874 141 257 141 257L142.013 230.459Z"
        fill="black" />
    <path
        d="M141.062 228.511C141.322 228.511 154.513 227 154.513 227C154.513 227 162.495 244.126 161.976 248.286C161.457 252.446 160.5 256.138 157.291 255.486C154.084 254.832 140 256 140 256L141.062 228.511Z"
        fill="white" />
    <path
        d="M150.997 221C150.997 221 162.741 228.08 162.993 230.241C163.245 232.403 157.016 229.298 155.67 228.922C154.784 228.682 153.882 228.526 152.975 228.45L144 228.721L150.997 221Z"
        fill="#CF6F80" />
    <path opacity="0.1"
        d="M169 166C169.552 166 170 165.328 170 164.5C170 163.672 169.552 163 169 163C168.448 163 168 163.672 168 164.5C168 165.328 168.448 166 169 166Z"
        fill="black" />
    <path
        d="M169 165C169.552 165 170 164.328 170 163.5C170 162.672 169.552 162 169 162C168.448 162 168 162.672 168 163.5C168 164.328 168.448 165 169 165Z"
        fill="#3F3D56" />
    <path opacity="0.1"
        d="M171.5 224C172.328 224 173 223.328 173 222.5C173 221.672 172.328 221 171.5 221C170.672 221 170 221.672 170 222.5C170 223.328 170.672 224 171.5 224Z"
        fill="black" />
    <path
        d="M171.5 223C172.328 223 173 222.552 173 222C173 221.448 172.328 221 171.5 221C170.672 221 170 221.448 170 222C170 222.552 170.672 223 171.5 223Z"
        fill="#3F3D56" />
    <path opacity="0.1"
        d="M170.5 195C171.328 195 172 194.328 172 193.5C172 192.672 171.328 192 170.5 192C169.672 192 169 192.672 169 193.5C169 194.328 169.672 195 170.5 195Z"
        fill="black" />
    <path
        d="M170.5 194C171.328 194 172 193.328 172 192.5C172 191.672 171.328 191 170.5 191C169.672 191 169 191.672 169 192.5C169 193.328 169.672 194 170.5 194Z"
        fill="#3F3D56" />
    <path
        d="M199.059 227.928C199.059 227.928 199.901 229.305 199.059 229.949C198.217 230.593 199.142 232.151 199.142 232.151C199.142 232.151 197.04 233.493 197.966 234.702C198.89 235.91 198.304 241.367 198.304 241.367L195.777 245.93C195.777 245.93 195.929 248.871 195.937 252.846C195.937 259.046 195.604 267.763 193.755 271.738L194.011 304.345C194.011 304.345 185.163 307.87 177.758 306.797L176.659 254.474C176.659 254.474 178.261 224.801 178.851 219.11C179.196 216.156 179.337 213.176 179.272 210.197C179.272 210.197 179.021 201.291 178.174 197.158C178.174 197.158 177.258 179.248 177.168 174.291C177.126 171.918 177.241 165 177.369 158.418C177.511 151.224 177.671 144.439 177.671 144.439L176 130.021C176 130.021 177.671 129.836 178.174 130.569C178.4 130.798 178.645 131.006 178.906 131.184C181.79 133.311 191.979 139.85 191.979 139.85C191.979 139.85 197.617 142.298 198.967 145.802C200.318 149.307 201.256 151.793 201.911 152.792C202.565 153.79 202.922 158.484 202.922 158.484C202.922 158.484 204.862 167.12 206.379 168.584C207.893 170.047 209 179.352 209 179.352L195.613 190.836C195.613 190.836 194.437 209.938 194.184 210.678C193.933 211.417 199.059 227.928 199.059 227.928Z"
        fill="white" />
    <path
        d="M199.932 227.991C199.932 227.991 200.782 229.367 199.932 230.01C199.083 230.653 200.011 232.209 200.011 232.209C200.011 232.209 197.895 233.567 198.823 234.773C199.751 235.98 199.167 241.433 199.167 241.433L196.604 245.991C196.604 245.991 196.758 248.929 196.771 252.899C196.771 259.094 196.431 267.802 194.556 271.773L194.812 304.348C194.812 304.348 185.825 307.869 178.325 306.797L177.216 254.525C177.216 254.525 178.84 224.883 179.44 219.196C179.79 216.245 179.931 213.268 179.861 210.293C179.861 210.293 179.606 201.395 178.752 197.265C178.752 197.265 177.824 179.373 177.726 174.421C177.684 172.052 177.805 165.138 177.931 158.565C178.075 151.377 178.237 144.6 178.237 144.6L176 130C176 130 178.237 130 178.752 130.743C178.979 130.975 179.227 131.181 179.495 131.356C182.42 133.481 192.757 140.016 192.757 140.016C192.757 140.016 198.471 142.458 199.84 145.96C201.209 149.462 202.16 151.946 202.83 152.944C203.497 153.941 203.85 158.631 203.85 158.631C203.85 158.631 205.818 167.259 207.354 168.72C208.89 170.182 210 179.46 210 179.46L196.423 190.931C196.423 190.931 195.23 210.015 194.97 210.752C194.711 211.49 199.932 227.991 199.932 227.991Z"
        fill="white" />
    <path opacity="0.1"
        d="M183.171 149.011L184.399 152.911L177.934 160C178.079 152.708 178.242 145.821 178.242 145.821L176 131C176 131 178.242 131 178.759 131.753C178.983 131.989 179.234 132.196 179.502 132.372L185 149.639L183.171 149.011Z"
        fill="black" />
    <path
        d="M183.169 148.014L184.401 151.912L177.938 159C178.082 151.704 178.245 144.823 178.245 144.823L176 130C176 130 178.245 130 178.756 130.755C178.984 130.988 179.233 131.198 179.501 131.378L185 148.641L183.169 148.014Z"
        fill="white" />
    <path opacity="0.1"
        d="M182.994 109.744C182.996 111.578 182.731 113.401 182.208 115.145C182.029 115.177 181.848 115.125 181.703 115.007C181.581 110.426 179.509 106.125 176.962 102.464C176.245 101.359 175.378 100.382 174.39 99.5634C173.39 98.746 172.147 98.3625 170.903 98.4882C169.5 98.6978 168.26 99.7355 166.843 99.8685C164.975 100.036 163.3 98.626 161.444 98.5542C159.918 98.5706 158.471 99.3015 157.474 100.561C156.498 101.817 155.774 103.28 155.346 104.856C154.611 107.25 154.211 109.749 154.16 112.269C154.137 113.693 154.01 115.48 152.794 116C152.979 113.881 152.34 111.775 151.031 110.193L151.002 110.161C151.002 110.019 151.002 109.886 151.002 109.744C150.792 96.3361 163.992 87.7083 174.762 94.2134C179.932 97.3363 183.099 103.308 182.998 109.744H182.994Z"
        fill="black" />
    <path
        d="M174.314 82.1256C171.901 80.898 169.157 80.6655 166.598 81.4724C165.311 81.8835 164.1 82.5512 162.796 82.8874C160.01 83.6162 156.76 82.8287 154.369 84.5896C153.041 85.5936 152.242 87.1799 151.499 88.7204L149.642 92.5456C148.63 94.6387 147.609 96.7673 147.186 99.0712C146.764 101.376 147.019 103.956 148.371 105.808C149.355 107.159 150.808 108.008 151.876 109.277C153.169 110.839 153.801 112.912 153.622 115C154.834 114.497 154.948 112.73 154.978 111.325C155.028 108.839 155.425 106.375 156.157 104.017C156.58 102.461 157.3 101.017 158.269 99.7799C159.26 98.5395 160.695 97.8179 162.21 97.8018C164.067 97.8718 165.736 99.257 167.573 99.0921C168.965 98.9666 170.2 97.9378 171.603 97.7366C172.839 97.6095 174.074 97.9876 175.067 98.7961C176.048 99.6013 176.907 100.567 177.615 101.657C180.151 105.266 182.206 109.498 182.328 114.026C182.852 114.442 183.609 113.9 183.869 113.258C184.13 112.615 184.138 111.862 184.469 111.25C184.849 110.542 185.578 110.165 186.147 109.634C187.597 108.283 187.959 106.01 187.904 103.945C187.848 101.883 187.475 99.7896 187.839 97.7616C188.057 96.5163 188.549 95.3523 188.818 94.1215C189.087 92.8931 189.119 91.5119 188.484 90.4524C187.555 88.8966 185.6 88.5909 183.896 88.4453C181.96 88.2635 180.229 88.4952 178.994 86.7335C178.415 85.8124 177.762 84.95 177.044 84.1528C176.798 83.8922 174.314 82.235 174.314 82.1256Z"
        fill="#512E4E" />
    <path opacity="0.1"
        d="M123.388 187.638L118.536 178L117 192.873C117 192.873 117.855 199.477 117.683 200.49C117.511 201.503 121.183 210.584 121.183 210.584C121.183 210.584 133.314 233.804 138.266 235L155 222.148L150.563 216.092C150.563 216.092 149.026 215.448 148.64 216.092C148.64 216.092 140.401 200.854 139.547 199.752C138.693 198.65 138.86 196.45 138.86 196.45C138.86 196.45 137.579 194.982 138.006 193.605C138.433 192.228 135.532 187.455 135.532 187.455L138.177 184.795L123.388 187.638Z"
        fill="black" />
    <path
        d="M118.817 177L117.535 178.097L116 192.945C116 192.945 116.854 199.538 116.682 200.549C116.511 201.56 120.186 210.625 120.186 210.625C120.186 210.625 132.31 233.806 137.262 235L154 222.17L149.558 216.124C149.558 216.124 148.022 215.481 147.637 216.124C147.637 216.124 139.397 200.912 138.544 199.812C137.69 198.711 137.861 196.516 137.861 196.516C137.861 196.516 136.579 195.05 137.007 193.675C137.435 192.3 134.53 187.535 134.53 187.535L137.174 184.88L118.817 177Z"
        fill="white" />
    <path opacity="0.1"
        d="M197.904 235.704C198.757 236.891 198.219 242.223 198.219 242.223L195.863 246.689C195.863 246.689 196.005 249.574 196.012 253.459L192.052 254.876C190.509 255.427 188.95 254.072 189.001 252.222L189.684 227L198.923 231.045C198.138 231.672 199 233.207 199 233.207C199 233.207 197.041 234.516 197.904 235.704Z"
        fill="black" />
    <path
        d="M198.794 235.003C199.732 236.232 199.142 241.756 199.142 241.756L196.551 246.378C196.551 246.378 196.706 249.358 196.72 253.384L192.286 254.875C190.624 255.431 188.949 254.059 189.001 252.185L189.756 226L199.921 230.188C199.053 230.835 200 232.419 200 232.419C200 232.419 197.856 233.78 198.794 235.003Z"
        fill="white" />
    <path
        d="M202 222.943C202 222.943 201.321 227.541 199.621 227.81C197.922 228.078 197.161 235.248 195.464 234.993C193.768 234.739 194.891 228.33 194.951 227.085C195.012 225.841 193.104 220.69 194.531 219.52C195.958 218.35 200.476 219.52 200.476 219.52L202 222.943Z"
        fill="#CF6F80" />
    <path opacity="0.1"
        d="M205.459 186.052L208.688 179C208.688 179 209.972 184.375 209.972 187.245C209.972 190.116 211.767 190.398 211.767 190.398C211.767 190.398 213.735 192.916 212.698 194.75C211.661 196.582 211.242 201.146 211.242 201.146C211.242 201.146 211.582 209.855 210.042 211.06C208.502 212.262 208.18 215.137 208.18 215.137C208.18 215.137 205.351 220.602 205.44 221.902C205.528 223.201 201.504 232 201.504 232C201.504 232 203.471 221.066 192.003 216.341C192.003 216.341 191.913 212.629 192.769 211.612C193.626 210.594 194.96 210.131 194.123 204.989C193.286 199.848 193.882 193.702 193.882 192.468C193.882 191.235 196.451 183.538 196.451 183.538L205.459 186.052Z"
        fill="black" />
    <path
        d="M206.87 178L209.687 179.007C209.687 179.007 210.973 184.381 210.973 187.251C210.973 190.122 212.769 190.403 212.769 190.403C212.769 190.403 214.734 192.921 213.699 194.755C212.662 196.587 212.247 201.15 212.247 201.15C212.247 201.15 212.588 209.858 211.048 211.062C209.509 212.265 209.166 215.14 209.166 215.14C209.166 215.14 206.343 220.604 206.433 221.903C206.521 223.203 202.495 232 202.495 232C202.495 232 204.466 221.067 193.002 216.344C193.002 216.344 192.918 212.632 193.774 211.615C194.629 210.597 195.964 210.134 195.127 204.993C194.29 199.852 194.885 193.707 194.885 192.473C194.885 191.24 197.45 183.544 197.45 183.544L206.87 178Z"
        fill="white" />
    <path opacity="0.1"
        d="M145 359.588C145 359.588 149.511 356.637 152.471 358.781C155.431 360.925 145 359.588 145 359.588Z"
        fill="black" />
    <path opacity="0.1"
        d="M180 350.03C180 350.03 183.995 349.416 187.35 353.726C190.703 358.035 180 350.03 180 350.03Z"
        fill="black" />
    <g opacity="0.1">
        <path
            d="M185.662 108.736C185.091 109.266 184.358 109.645 183.977 110.35C183.652 110.955 183.643 111.7 183.383 112.349C183.123 112.999 182.366 113.529 181.842 113.119C181.721 108.621 179.66 104.397 177.131 100.799C176.423 99.7129 175.564 98.7518 174.583 97.9501C173.589 97.1458 172.353 96.7697 171.115 96.8955C169.723 97.1004 168.497 98.12 167.091 98.2449C165.234 98.4149 163.568 97.0304 161.725 96.9604C160.977 96.9685 160.238 97.1488 159.559 97.4893C158.88 97.8298 158.277 98.3226 157.789 98.9347C156.82 100.165 156.101 101.6 155.677 103.148C154.948 105.496 154.551 107.95 154.499 110.425C154.471 111.82 154.35 113.559 153.152 114.079C153.18 114.448 153.18 114.819 153.152 115.188C154.359 114.688 154.48 112.929 154.508 111.53C154.56 109.054 154.957 106.601 155.687 104.253C156.11 102.703 156.83 101.267 157.799 100.034C158.287 99.4238 158.891 98.9324 159.57 98.5929C160.248 98.2533 160.986 98.0734 161.735 98.065C163.591 98.135 165.262 99.5144 167.1 99.3495C168.493 99.2246 169.727 98.2 171.125 98C172.362 97.8743 173.598 98.2504 174.592 99.0546C175.573 99.8564 176.433 100.817 177.14 101.903C179.67 105.497 181.731 109.71 181.851 114.219C182.376 114.633 183.132 114.094 183.392 113.454C183.652 112.814 183.661 112.064 183.986 111.455C184.367 110.75 185.1 110.375 185.671 109.845C187.119 108.501 187.481 106.237 187.426 104.183C187.426 104.118 187.426 104.053 187.426 103.993C187.338 105.772 186.897 107.586 185.662 108.736Z"
            fill="black" />
        <path
            d="M151.398 108.381C150.33 107.116 148.873 106.272 147.894 104.932C147.069 103.747 146.598 102.319 146.543 100.839C146.397 102.689 146.877 104.533 147.894 106.032C148.873 107.376 150.33 108.221 151.398 109.485C152.423 110.722 153.038 112.29 153.148 113.944C153.219 112.937 153.101 111.926 152.8 110.97C152.499 110.014 152.022 109.134 151.398 108.381Z"
            fill="black" />
        <path
            d="M188.331 93.2919C188.057 94.5164 187.57 95.681 187.347 96.9155C187.215 97.7404 187.167 98.5783 187.203 99.4145C187.218 98.9382 187.267 98.4638 187.347 97.9951C187.57 96.7555 188.057 95.596 188.331 94.3715C188.49 93.6961 188.542 92.9964 188.484 92.3023C188.455 92.6357 188.404 92.9664 188.331 93.2919Z"
            fill="black" />
    </g>
    <path opacity="0.1"
        d="M61.5 380C86.629 380 107 376.642 107 372.5C107 368.358 86.629 365 61.5 365C36.371 365 16 368.358 16 372.5C16 376.642 36.371 380 61.5 380Z"
        fill="#5EA8FF" />
    <path d="M63 222H60V293H63V222Z" fill="#535461" />
    <path
        d="M80.9894 292.77L80.8096 295.937L80.5531 300.417L80.447 302.279L80.196 306.76L80.086 308.623L79.8294 313.104L76.9324 363.924C76.6712 368.462 73.2073 371.998 69.0213 372H53.9591C49.774 371.998 46.3117 368.461 46.0528 363.924L43.17 313.069L42.9127 308.588L42.8082 306.725L42.5501 302.244L42.4464 300.383L42.189 295.901L42.0069 292.736C41.8708 290.162 43.7583 287.997 46.1311 288H76.9364C79.3014 288.022 81.158 290.208 80.9894 292.77Z"
        fill="#3F3D56" />
    <path d="M81 296L80.7411 300H42.2597L42 296H81Z" fill="#9D9CB5" />
    <path d="M81 302L80.7418 307H42.2647L42 302H81Z" fill="#9D9CB5" />
    <path d="M80 309L79.7487 313H43.2544L43 309H80Z" fill="#9D9CB5" />
    <path
        d="M37.1302 249.011C53.9719 262.267 61 283 61 283C61 283 40.7052 282.243 23.8611 268.985C7.01539 255.73 0 235 0 235C0 235 20.2861 235.753 37.1302 249.011Z"
        fill="#5EA8FF" />
    <path d="M0 235C0 235 21.0654 247.72 27.8211 258.253C34.5769 268.784 61 283 61 283"
        stroke="#535461" stroke-width="2" stroke-miterlimit="10" />
    <path
        d="M48.0849 222.591C57.1927 229.767 61 241 61 241C61 241 50.0238 240.59 40.9112 233.413C31.7994 226.237 28 215 28 215C28 215 38.9731 215.409 48.0849 222.591Z"
        fill="#5EA8FF" />
    <path d="M28 215C28 215 39.3943 221.891 43.048 227.594C46.7009 233.298 61 241 61 241"
        stroke="#535461" stroke-width="2" stroke-miterlimit="10" />
    <path
        d="M74.7156 240.341C64.2195 252.763 62 269 62 269C62 269 76.7977 265.088 87.2836 252.659C97.7694 240.231 100 224 100 224C100 224 85.2102 227.918 74.7156 240.341Z"
        fill="#5EA8FF" />
    <path d="M100 224C100 224 86.3319 236.737 82.8562 245.512C79.382 254.288 62 269 62 269"
        stroke="#535461" stroke-width="2" stroke-miterlimit="10" />
    <path
        d="M281.924 19H281.666C271.359 19 262.245 24.8817 257 33.5609C251.758 24.8817 242.642 19 232.337 19H232.077C215.979 19.1657 203.008 33.2808 203 50.6416C203 61.001 207.207 75.6988 215.409 87.7935C231.039 110.838 257 131 257 131C257 131 282.963 110.843 298.588 87.7935C306.796 75.6988 311 61.001 311 50.6416C310.99 33.2824 298.02 19.1673 281.924 19ZM278.218 89.5665C275.816 89.5569 273.665 87.9552 272.806 85.5355H266.644C265.813 85.5307 265.075 84.9559 264.809 84.1051L262.918 77.956L256.929 100.525C256.688 101.416 255.932 102.033 255.07 102.034H254.949C254.048 101.986 253.299 101.266 253.153 100.305L246.981 60.271L242.469 83.961C242.257 84.8855 241.485 85.5363 240.602 85.5355H231.923C230.437 85.6051 229.442 83.913 230.129 82.4922C230.475 81.7766 231.175 81.3411 231.923 81.3764H239.082L245.472 49.5242C245.82 47.9601 247.608 47.3902 248.691 48.4972C249.002 48.8166 249.206 49.2384 249.27 49.6963L255.575 90.5351L260.942 70.3422C261.171 69.4697 261.907 68.863 262.748 68.8534H262.786C263.617 68.8542 264.357 69.4305 264.616 70.2838L268.039 81.3868H272.731C274.123 76.8218 279.576 75.5955 282.545 79.1783C285.513 82.7635 283.772 88.4691 279.41 89.4497C279.022 89.5377 278.624 89.5809 278.228 89.5809L278.218 89.5665Z"
        fill="#5EA8FF" />
    <defs>
        <linearGradient id="paint0_linear_0_1" x1="164.995" y1="387.01" x2="164.995" y2="80.0004"
            gradientUnits="userSpaceOnUse">
            <stop stop-color="#808080" stop-opacity="0.25" />
            <stop offset="0.54" stop-color="#808080" stop-opacity="0.12" />
            <stop offset="1" stop-color="#808080" stop-opacity="0.1" />
        </linearGradient>
    </defs>
</svg>